<svg xmlns="http://www.w3.org/2000/svg" viewBox="14 13 72 72" fill="#6366f1">
  <path d="M66.67,46.99c11.76,1.93,18.75-7.35,10.06-19.85c-3.22-4.36-8.01-7.9-13.13-9.73
    c-5.65-2.02-11.05-1.68-14.46,0.89C39.43,25.62,50.89,44.4,66.67,46.99z
    M56.94,25.46c0.71-5.35,9.28-5.47,14.63,1.32
    c0.78,1.05,1.72,2.69,1.83,4.56c0.09,1.6-0.51,3.02-1.66,3.88C66.72,39,56.08,31.98,56.94,25.46z" />
  <path d="M85.14,43.39c-0.43-2.19-0.55-2.55-1.44-5.39l-0.52-1.38c0.58,1.58,1.67,4.53,1.63,8.03
    C84.62,61.94,59.61,63,43.63,46.4c-13.74-14.27-11.87-33.24,8.78-32.37l-1.88-0.1
    c-2.29-0.03-2.55,0-5.75,0.32c-2.86,0.45-3.35,0.59-6.55,1.53c-1.05,0.37-2.43,0.93-3.46,1.35
    C23.45,22.33,22.4,36.8,32.39,50.07c15.89,21.11,49.21,27.06,53.1,4.25
    c0.13-1.4,0.22-3.28,0.26-4.69C85.67,46.96,85.6,46.48,85.14,43.39z" />
  <path d="M66.24,77.31c-25.68,3.26-59.68-29.96-44.05-50.7l-1.6,2.02
    c-2.25,3.31-2.68,4.17-4.14,7.28c-0.53,1.37-1.16,3.23-1.6,4.63
    C9.09,64.87,47.17,92.79,69.16,80.37c2.4-1.6,2.74-1.9,5.42-4.27
    c1.68-1.63,1.82-1.8,4.15-4.73l1.02-1.5C76.06,75.05,70.41,76.78,66.24,77.31z" />
  <path d="M14.29,57.16c0.36,1.74,0.4,1.86,1.34,4.84c0.64,1.77,0.74,1.99,1.99,4.6
    c1.24,2.29,1.55,2.73,3.04,4.87c0.86,1.16,0.93,1.24,2.67,3.21
    c0.89,0.96,0.93,0.99,2.79,2.68c0.94,0.81,0.94,0.81,2.95,2.28
    c1.02,0.71,1.02,0.71,3.16,1.96c1.13,0.62,1.13,0.62,3.44,1.67
    c1.28,0.54,1.28,0.54,3.82,1.36c1.51,0.44,1.56,0.45,4.32,0.99
    c1.83,0.29,1.95,0.3,4.97,0.47c1.37,0.04,3.21-0.09,4.58-0.18
    C36.57,86.97,18.31,73.54,14.29,57.16z" />
</svg>
